<svg xmlns="http://www.w3.org/2000/svg" width="30" height="30" viewBox="0 0 30 30">
    <path fill="#FFF" fill-rule="nonzero"
          d="M21.888 0H7.928C3.572-.01.028 3.539 0 7.938v20.427A1.68 1.68 0 0 0 1.666 30h20.222a7.794 7.794 0 0 0 5.543-2.34 7.953 7.953 0 0 0 2.272-5.616v-14.1a7.932 7.932 0 0 0-2.27-5.615A7.773 7.773 0 0 0 21.888 0zm-5.085 21.363H5.851a.847.847 0 0 1-.683-.834c0-.408.287-.758.683-.834h10.952a.847.847 0 0 1 .683.834.847.847 0 0 1-.683.834zm7.185-4.695H5.837a.847.847 0 0 1-.684-.834c0-.408.287-.758.684-.834h18.151a.847.847 0 0 1 .683.834.847.847 0 0 1-.683.834zm0-4.698H5.837a.77.77 0 0 1-.675-.834.77.77 0 0 1 .675-.834h18.151a.77.77 0 0 1 .665.834.77.77 0 0 1-.665.834zm0-4.698H5.837a.77.77 0 0 1-.675-.834.77.77 0 0 1 .675-.834h18.151a.77.77 0 0 1 .665.834.77.77 0 0 1-.665.834z"/>
</svg>
